<?xml version="1.0" encoding="UTF-8" standalone="no"?>
<!-- Created with Inkscape (http://www.inkscape.org/) -->

<svg
   xmlns:dc="http://purl.org/dc/elements/1.1/"
   xmlns:cc="http://creativecommons.org/ns#"
   xmlns:rdf="http://www.w3.org/1999/02/22-rdf-syntax-ns#"
   xmlns:svg="http://www.w3.org/2000/svg"
   xmlns="http://www.w3.org/2000/svg"
   xmlns:sodipodi="http://sodipodi.sourceforge.net/DTD/sodipodi-0.dtd"
   xmlns:inkscape="http://www.inkscape.org/namespaces/inkscape"
   width="210mm"
   height="297mm"
   viewBox="0 0 210 297"
   version="1.1"
   id="svg8"
   inkscape:version="0.92.5 (2060ec1f9f, 2020-04-08)"
   sodipodi:docname="drawing.svg">
  <defs
     id="defs2" />
  <sodipodi:namedview
     id="base"
     pagecolor="#ffffff"
     bordercolor="#666666"
     borderopacity="1.0"
     inkscape:pageopacity="0.0"
     inkscape:pageshadow="2"
     inkscape:zoom="1.4"
     inkscape:cx="394.93867"
     inkscape:cy="603.23086"
     inkscape:document-units="mm"
     inkscape:current-layer="layer1"
     showgrid="false"
     inkscape:window-width="1848"
     inkscape:window-height="1016"
     inkscape:window-x="72"
     inkscape:window-y="27"
     inkscape:window-maximized="1" />
  <metadata
     id="metadata5">
    <rdf:RDF>
      <cc:Work
         rdf:about="">
        <dc:format>image/svg+xml</dc:format>
        <dc:type
           rdf:resource="http://purl.org/dc/dcmitype/StillImage" />
        <dc:title></dc:title>
      </cc:Work>
    </rdf:RDF>
  </metadata>
  <g
     inkscape:label="Layer 1"
     inkscape:groupmode="layer"
     id="layer1">
    <g
       id="g77"
       inkscape:label="Gear20"
       transform="translate(89.870433,120.96927)"
       style="fill:#7fff2a">
      <path
         id="path73"
         style="fill:#7fff2a;stroke:#000000;stroke-width:0.26458332"
         d="m 15.09337,-1.41451 0.66566,-0.06238 1.03294,0.15533 1.72708,0.73643 V 0.58513 L 16.79197,1.32156 15.75903,1.47689 15.09337,1.41451 14.79176,3.31883 15.44412,3.4652 16.3785,3.93213 17.79347,5.16621 17.43185,6.27919 15.56173,6.44588 14.53135,6.27442 13.91754,6.00938 13.04222,7.7273 l 0.5752,0.3408 0.74436,0.73281 0.96437,1.61093 -0.68786,0.94676 -1.83009,-0.41936 -0.92697,-0.48148 -0.50186,-0.44174 -1.36335,1.36335 0.44174,0.50186 0.48148,0.92697 0.41936,1.83009 -0.94676,0.68786 L 8.80091,14.36178 8.0681,13.61742 7.7273,13.04222 6.00938,13.91754 6.27442,14.53135 6.44588,15.56173 6.27919,17.43185 5.16621,17.79347 3.93213,16.3785 3.4652,15.44412 3.31883,14.79176 1.41451,15.09337 1.47689,15.75903 1.32156,16.79197 0.58513,18.51905 h -1.17026 l -0.73643,-1.72708 -0.15533,-1.03294 0.06238,-0.66566 -1.90432,-0.30161 -0.14637,0.65236 -0.46693,0.93438 -1.23408,1.41497 -1.11298,-0.36162 -0.16669,-1.87012 0.17146,-1.03038 0.26504,-0.61381 -1.71792,-0.87532 -0.3408,0.5752 -0.73281,0.74436 -1.61093,0.96437 -0.94676,-0.68786 0.41936,-1.83009 0.48148,-0.92697 0.44174,-0.50186 -1.36335,-1.36335 -0.50186,0.44174 -0.92697,0.48148 -1.83009,0.41936 -0.68786,-0.94676 0.96437,-1.61093 0.74436,-0.73281 0.5752,-0.3408 -0.87532,-1.71792 -0.61381,0.26504 -1.03038,0.17146 -1.87012,-0.16669 -0.36162,-1.11298 1.41497,-1.23408 0.93438,-0.46693 0.65236,-0.14637 -0.30161,-1.90432 -0.66566,0.06238 -1.03294,-0.15533 -1.72708,-0.73643 v -1.17026 l 1.72708,-0.73643 1.03294,-0.15533 0.66566,0.06238 0.30161,-1.90432 -0.65236,-0.14637 -0.93438,-0.46693 -1.41497,-1.23408 0.36162,-1.11298 1.87012,-0.16669 1.03038,0.17146 0.61381,0.26504 0.87532,-1.71792 -0.5752,-0.3408 -0.74436,-0.73281 -0.96437,-1.61093 0.68786,-0.94676 1.83009,0.41936 0.92697,0.48148 0.50186,0.44174 1.36335,-1.36335 -0.44174,-0.50186 -0.48148,-0.92697 -0.41936,-1.83009 0.94676,-0.68786 1.61093,0.96437 0.73281,0.74436 0.3408,0.5752 1.71792,-0.87532 -0.26504,-0.61381 -0.17146,-1.03038 0.16669,-1.87012 1.11298,-0.36162 1.23408,1.41497 0.46693,0.93438 0.14637,0.65236 1.90432,-0.30161 -0.06238,-0.66566 0.15533,-1.03294 0.73643,-1.72708 h 1.17026 l 0.73643,1.72708 0.15533,1.03294 -0.06238,0.66566 1.90432,0.30161 0.14637,-0.65236 0.46693,-0.93438 1.23408,-1.41497 1.11298,0.36162 0.16669,1.87012 -0.17146,1.03038 -0.26504,0.61381 1.71792,0.87532 0.3408,-0.5752 0.73281,-0.74436 1.61093,-0.96437 0.94676,0.68786 -0.41936,1.83009 -0.48148,0.92697 -0.44174,0.50186 1.36335,1.36335 0.50186,-0.44174 0.92697,-0.48148 1.83009,-0.41936 0.68786,0.94676 -0.96437,1.61093 -0.74436,0.73281 -0.5752,0.3408 0.87532,1.71792 0.61381,-0.26504 1.03038,-0.17146 1.87012,0.16669 0.36162,1.11298 -1.41497,1.23408 -0.93438,0.46693 -0.65236,0.14637 z"
         inkscape:connector-curvature="0" />
      <circle
         id="path75"
         style="fill:#7fff2a;stroke:#000000;stroke-width:0.26458332"
         cx="0"
         cy="0"
         r="2.6458333" />
    </g>
    <g
       id="g103"
       inkscape:label="Gear20"
       transform="translate(116.41726,118.03918)"
       style="fill:#0000ff">
      <path
         id="path99"
         style="fill:#0000ff;stroke:#000000;stroke-width:0.26458332"
         d="m 15.09337,-1.41451 0.66566,-0.06238 1.03294,0.15533 1.72708,0.73643 V 0.58513 L 16.79197,1.32156 15.75903,1.47689 15.09337,1.41451 14.79176,3.31883 15.44412,3.4652 16.3785,3.93213 17.79347,5.16621 17.43185,6.27919 15.56173,6.44588 14.53135,6.27442 13.91754,6.00938 13.04222,7.7273 l 0.5752,0.3408 0.74436,0.73281 0.96437,1.61093 -0.68786,0.94676 -1.83009,-0.41936 -0.92697,-0.48148 -0.50186,-0.44174 -1.36335,1.36335 0.44174,0.50186 0.48148,0.92697 0.41936,1.83009 -0.94676,0.68786 L 8.80091,14.36178 8.0681,13.61742 7.7273,13.04222 6.00938,13.91754 6.27442,14.53135 6.44588,15.56173 6.27919,17.43185 5.16621,17.79347 3.93213,16.3785 3.4652,15.44412 3.31883,14.79176 1.41451,15.09337 1.47689,15.75903 1.32156,16.79197 0.58513,18.51905 h -1.17026 l -0.73643,-1.72708 -0.15533,-1.03294 0.06238,-0.66566 -1.90432,-0.30161 -0.14637,0.65236 -0.46693,0.93438 -1.23408,1.41497 -1.11298,-0.36162 -0.16669,-1.87012 0.17146,-1.03038 0.26504,-0.61381 -1.71792,-0.87532 -0.3408,0.5752 -0.73281,0.74436 -1.61093,0.96437 -0.94676,-0.68786 0.41936,-1.83009 0.48148,-0.92697 0.44174,-0.50186 -1.36335,-1.36335 -0.50186,0.44174 -0.92697,0.48148 -1.83009,0.41936 -0.68786,-0.94676 0.96437,-1.61093 0.74436,-0.73281 0.5752,-0.3408 -0.87532,-1.71792 -0.61381,0.26504 -1.03038,0.17146 -1.87012,-0.16669 -0.36162,-1.11298 1.41497,-1.23408 0.93438,-0.46693 0.65236,-0.14637 -0.30161,-1.90432 -0.66566,0.06238 -1.03294,-0.15533 -1.72708,-0.73643 v -1.17026 l 1.72708,-0.73643 1.03294,-0.15533 0.66566,0.06238 0.30161,-1.90432 -0.65236,-0.14637 -0.93438,-0.46693 -1.41497,-1.23408 0.36162,-1.11298 1.87012,-0.16669 1.03038,0.17146 0.61381,0.26504 0.87532,-1.71792 -0.5752,-0.3408 -0.74436,-0.73281 -0.96437,-1.61093 0.68786,-0.94676 1.83009,0.41936 0.92697,0.48148 0.50186,0.44174 1.36335,-1.36335 -0.44174,-0.50186 -0.48148,-0.92697 -0.41936,-1.83009 0.94676,-0.68786 1.61093,0.96437 0.73281,0.74436 0.3408,0.5752 1.71792,-0.87532 -0.26504,-0.61381 -0.17146,-1.03038 0.16669,-1.87012 1.11298,-0.36162 1.23408,1.41497 0.46693,0.93438 0.14637,0.65236 1.90432,-0.30161 -0.06238,-0.66566 0.15533,-1.03294 0.73643,-1.72708 h 1.17026 l 0.73643,1.72708 0.15533,1.03294 -0.06238,0.66566 1.90432,0.30161 0.14637,-0.65236 0.46693,-0.93438 1.23408,-1.41497 1.11298,0.36162 0.16669,1.87012 -0.17146,1.03038 -0.26504,0.61381 1.71792,0.87532 0.3408,-0.5752 0.73281,-0.74436 1.61093,-0.96437 0.94676,0.68786 -0.41936,1.83009 -0.48148,0.92697 -0.44174,0.50186 1.36335,1.36335 0.50186,-0.44174 0.92697,-0.48148 1.83009,-0.41936 0.68786,0.94676 -0.96437,1.61093 -0.74436,0.73281 -0.5752,0.3408 0.87532,1.71792 0.61381,-0.26504 1.03038,-0.17146 1.87012,0.16669 0.36162,1.11298 -1.41497,1.23408 -0.93438,0.46693 -0.65236,0.14637 z"
         inkscape:connector-curvature="0" />
      <circle
         id="path101"
         style="fill:#0000ff;stroke:#000000;stroke-width:0.26458332"
         cx="0"
         cy="0"
         r="2.6458333" />
    </g>
    <g
       id="g17"
       inkscape:label="Gear10"
       transform="translate(89.865033,120.74836)"
       style="fill:#ff00ff">
      <path
         id="path13"
         style="fill:#ff00ff;stroke:#000000;stroke-width:0.26458332"
         d="m 6.63816,-1.15305 1.15913,-0.20134 0.52097,0.03691 1.77596,0.82271 V 0.49477 L 8.31826,1.31748 7.79729,1.35439 6.63816,1.15305 6.04813,2.96898 7.10423,3.48741 7.50401,3.82348 8.45721,5.53296 7.87558,6.33351 5.95522,5.95522 5.51205,5.67886 4.69264,4.83465 3.14792,5.95695 3.6976,6.99713 3.82348,7.50401 3.58984,9.44728 2.64873,9.75307 1.31748,8.31826 1.12139,7.83419 0.95469,6.66958 H -0.95469 L -1.12139,7.83419 -1.31748,8.31826 -2.64873,9.75307 -3.58984,9.44728 -3.82348,7.50401 -3.6976,6.99713 -3.14792,5.95695 -4.69264,4.83465 -5.51205,5.67886 -5.95522,5.95522 -7.87558,6.33351 -8.45721,5.53296 -7.50401,3.82348 -7.10423,3.48741 -6.04813,2.96898 -6.63816,1.15305 -7.79729,1.35439 -8.31826,1.31748 -10.09422,0.49477 v -0.98954 l 1.77596,-0.82271 0.52097,-0.03691 1.15913,0.20134 0.59003,-1.81593 -1.0561,-0.51843 -0.39978,-0.33607 -0.9532,-1.70948 0.58163,-0.80055 1.92036,0.37829 0.44317,0.27636 0.81941,0.84421 1.54472,-1.1223 -0.54968,-1.04018 -0.12588,-0.50688 0.23364,-1.94327 0.94111,-0.30579 1.33125,1.43481 0.19609,0.48407 0.1667,1.16461 h 1.90938 l 0.1667,-1.16461 0.19609,-0.48407 1.33125,-1.43481 0.94111,0.30579 0.23364,1.94327 -0.12588,0.50688 -0.54968,1.04018 1.54472,1.1223 0.81941,-0.84421 0.44317,-0.27636 1.92036,-0.37829 0.58163,0.80055 -0.9532,1.70948 -0.39978,0.33607 -1.0561,0.51843 z"
         inkscape:connector-curvature="0" />
      <circle
         id="path15"
         style="fill:#ff00ff;stroke:#000000;stroke-width:0.26458332"
         cx="0"
         cy="0"
         r="2.6458333" />
    </g>
    <g
       id="g34"
       inkscape:label="Gear10"
       transform="translate(116.15613,118.14948)"
       style="fill:#ff0000">
      <path
         id="path30"
         style="fill:#ff0000;stroke:#000000;stroke-width:0.26458332"
         d="m 6.63816,-1.15305 1.15913,-0.20134 0.52097,0.03691 1.77596,0.82271 V 0.49477 L 8.31826,1.31748 7.79729,1.35439 6.63816,1.15305 6.04813,2.96898 7.10423,3.48741 7.50401,3.82348 8.45721,5.53296 7.87558,6.33351 5.95522,5.95522 5.51205,5.67886 4.69264,4.83465 3.14792,5.95695 3.6976,6.99713 3.82348,7.50401 3.58984,9.44728 2.64873,9.75307 1.31748,8.31826 1.12139,7.83419 0.95469,6.66958 H -0.95469 L -1.12139,7.83419 -1.31748,8.31826 -2.64873,9.75307 -3.58984,9.44728 -3.82348,7.50401 -3.6976,6.99713 -3.14792,5.95695 -4.69264,4.83465 -5.51205,5.67886 -5.95522,5.95522 -7.87558,6.33351 -8.45721,5.53296 -7.50401,3.82348 -7.10423,3.48741 -6.04813,2.96898 -6.63816,1.15305 -7.79729,1.35439 -8.31826,1.31748 -10.09422,0.49477 v -0.98954 l 1.77596,-0.82271 0.52097,-0.03691 1.15913,0.20134 0.59003,-1.81593 -1.0561,-0.51843 -0.39978,-0.33607 -0.9532,-1.70948 0.58163,-0.80055 1.92036,0.37829 0.44317,0.27636 0.81941,0.84421 1.54472,-1.1223 -0.54968,-1.04018 -0.12588,-0.50688 0.23364,-1.94327 0.94111,-0.30579 1.33125,1.43481 0.19609,0.48407 0.1667,1.16461 h 1.90938 l 0.1667,-1.16461 0.19609,-0.48407 1.33125,-1.43481 0.94111,0.30579 0.23364,1.94327 -0.12588,0.50688 -0.54968,1.04018 1.54472,1.1223 0.81941,-0.84421 0.44317,-0.27636 1.92036,-0.37829 0.58163,0.80055 -0.9532,1.70948 -0.39978,0.33607 -1.0561,0.51843 z"
         inkscape:connector-curvature="0" />
      <circle
         id="path32"
         style="fill:#ff0000;stroke:#000000;stroke-width:0.26458332"
         cx="0"
         cy="0"
         r="2.6458333" />
    </g>
    <g
       id="g54"
       inkscape:label="Gear10"
       transform="translate(64.972733,122.64807)">
      <path
         id="path50"
         style="fill:#cdde87;stroke:#000000;stroke-width:0.26458332"
         d="m 5.5798266,-0.09471666 1.15913,-0.20134 0.52097,0.03691 1.77596,0.82270999 V 1.5531034 l -1.77596,0.82271 -0.52097,0.03691 -1.15913,-0.20134 -0.59003,1.81593 1.0561,0.51843 0.39978,0.33607 0.9532,1.70948 -0.58163,0.80055 -1.92036,-0.37829 -0.44317,-0.27636 -0.81941,-0.84421 -1.54472,1.1223 0.54968,1.04018 0.12588,0.50688 -0.23364,1.9432696 -0.94111,0.305791 -1.33124994,-1.4348106 -0.19609,-0.48407 -0.1667,-1.16461 H -2.0130234 l -0.1667,1.16461 -0.19609,0.48407 -1.33125,1.4348106 -0.94111,-0.305791 -0.23364,-1.9432696 0.12588,-0.50688 0.54968,-1.04018 -1.54472,-1.1223 -0.81941,0.84421 -0.44317,0.27636 -1.92036,0.37829 -0.58163,-0.80055 0.9532,-1.70948 0.39978,-0.33607 1.0561,-0.51843 -0.59003,-1.81593 -1.15913,0.20134 -0.52097,-0.03691 -1.7759606,-0.82271 V 0.56356333 l 1.7759606,-0.82270999 0.52097,-0.03691 1.15913,0.20134 0.59003,-1.81592994 -1.0561,-0.51843 -0.39978,-0.33607 -0.9532,-1.70948 0.58163,-0.80055 1.92036,0.37829 0.44317,0.27636 0.81941,0.84421 1.54472,-1.1223 -0.54968,-1.04018 -0.12588,-0.50688 0.23364,-1.94327 0.94111,-0.30579 1.33125,1.43481 0.19609,0.48407 0.1667,1.16461 h 1.90938006 l 0.1667,-1.16461 0.19609,-0.48407 1.33124994,-1.43481 0.94111,0.30579 0.23364,1.94327 -0.12588,0.50688 -0.54968,1.04018 1.54472,1.1223 0.81941,-0.84421 0.44317,-0.27636 1.92036,-0.37829 0.58163,0.80055 -0.9532,1.70948 -0.39978,0.33607 -1.0561,0.51843 z"
         inkscape:connector-curvature="0" />
      <circle
         id="path52"
         style="fill:none;stroke:#000000;stroke-width:0.26458332"
         cx="0"
         cy="0"
         r="2.6458333" />
    </g>
    <g
       id="g132"
       inkscape:label="Gear30"
       transform="translate(150.86943,120.83698)"
       style="fill:#ffd42a">
      <path
         id="path128"
         style="fill:#ffd42a;stroke:#000000;stroke-width:0.26458332"
         d="m 23.52813,-1.58499 0.16031,-0.0108 1.54278,0.27348 1.71186,0.70133 v 1.24196 l -1.71186,0.70133 -1.54278,0.27348 -0.16031,-0.0108 -0.18461,1.75643 0.15905,0.02276 1.45221,0.58827 1.52864,1.04192 -0.25822,1.21482 -1.82027,0.33009 -1.56592,-0.05326 -0.15456,-0.04389 -0.54576,1.67966 0.15084,0.05534 1.29817,0.87734 1.27861,1.33698 -0.50516,1.13458 -1.84912,-0.05558 -1.52063,-0.37766 -0.14206,-0.07507 -0.88305,1.52948 0.13604,0.08549 1.08739,1.12808 0.97269,1.57359 -0.73,1.00477 -1.79716,-0.43882 -1.40888,-0.68557 -0.12335,-0.10297 -1.18175,1.31247 0.1153,0.11191 0.82908,1.3295 0.62427,1.74145 -0.92296,0.83103 -1.66665,-0.80288 -1.23555,-0.96351 -0.09925,-0.12636 -1.4288,1.03808 0.08951,0.13343 0.53455,1.47283 0.24855,1.83318 -1.07556,0.62098 -1.46331,-1.13185 -1.00823,-1.19934 -0.0708,-0.14423 -1.61341,0.71833 0.05981,0.14913 0.21665,1.55178 -0.13801,1.8448 -1.18118,0.38379 -1.196,-1.41136 -0.73684,-1.38276 -0.03927,-0.1558 -1.7275,0.36719 0.0275,0.15831 L 3.95245,24.95478 3.4339,26.73057 2.19874,26.86039 1.32231,25.23122 0.88907,23.72548 0.88305,23.56492 h -1.7661 l -0.00602,0.16056 -0.43324,1.50574 -0.87643,1.62917 -1.23516,-0.12982 -0.51855,-1.77579 -0.11072,-1.56291 0.0275,-0.15831 -1.7275,-0.36719 -0.03927,0.1558 -0.73684,1.38276 -1.196,1.41136 -1.18118,-0.38379 -0.13801,-1.8448 0.21665,-1.55178 0.05981,-0.14913 -1.61341,-0.71833 -0.0708,0.14423 -1.00823,1.19934 -1.46331,1.13185 -1.07556,-0.62098 0.24855,-1.83318 0.53455,-1.47283 0.08951,-0.13343 -1.4288,-1.03808 -0.09925,0.12636 -1.23555,0.96351 -1.66665,0.80288 -0.92296,-0.83103 0.62427,-1.74145 0.82908,-1.3295 0.1153,-0.11191 -1.18175,-1.31247 -0.12335,0.10297 -1.40888,0.68557 -1.79716,0.43882 -0.73,-1.00477 0.97269,-1.57359 1.08739,-1.12808 0.13604,-0.08549 -0.88305,-1.52948 -0.14206,0.07507 -1.52063,0.37766 -1.84912,0.05558 -0.50516,-1.13458 1.27861,-1.33698 1.29817,-0.87734 0.15084,-0.05534 -0.54576,-1.67966 -0.15456,0.04389 -1.56592,0.05326 -1.82027,-0.33009 -0.25822,-1.21482 1.52864,-1.04192 1.45221,-0.58827 0.15905,-0.02276 -0.18461,-1.75643 -0.16031,0.0108 -1.54278,-0.27348 -1.71186,-0.70133 v -1.24196 l 1.71186,-0.70133 1.54278,-0.27348 0.16031,0.0108 0.18461,-1.75643 -0.15905,-0.02276 -1.45221,-0.58827 -1.52864,-1.04192 0.25822,-1.21482 1.82027,-0.33009 1.56592,0.05326 0.15456,0.04389 0.54576,-1.67966 -0.15084,-0.05534 -1.29817,-0.87734 -1.27861,-1.33698 0.50516,-1.13458 1.84912,0.05558 1.52063,0.37766 0.14206,0.07507 0.88305,-1.52948 -0.13604,-0.08549 -1.08739,-1.12808 -0.97269,-1.57359 0.73,-1.00477 1.79716,0.43882 1.40888,0.68557 0.12335,0.10297 1.18175,-1.31247 -0.1153,-0.11191 -0.82908,-1.3295 -0.62427,-1.74145 0.92296,-0.83103 1.66665,0.80288 1.23555,0.96351 0.09925,0.12636 1.4288,-1.03808 -0.08951,-0.13343 -0.53455,-1.47283 -0.24855,-1.83318 1.07556,-0.62098 1.46331,1.13185 1.00823,1.19934 0.0708,0.14423 1.61341,-0.71833 -0.05981,-0.14913 -0.21665,-1.55178 0.13801,-1.8448 1.18118,-0.38379 1.196,1.41136 0.73684,1.38276 0.03927,0.1558 1.7275,-0.36719 -0.0275,-0.15831 0.11072,-1.56291 0.51855,-1.77579 1.23516,-0.12982 0.87643,1.62917 0.43324,1.50574 0.00602,0.16056 h 1.7661 l 0.00602,-0.16056 0.43324,-1.50574 0.87643,-1.62917 1.23516,0.12982 0.51855,1.77579 0.11072,1.56291 -0.0275,0.15831 1.7275,0.36719 0.03927,-0.1558 0.73684,-1.38276 1.196,-1.41136 1.18118,0.38379 0.13801,1.8448 -0.21665,1.55178 -0.05981,0.14913 1.61341,0.71833 0.0708,-0.14423 1.00823,-1.19934 1.46331,-1.13185 1.07556,0.62098 -0.24855,1.83318 -0.53455,1.47283 -0.08951,0.13343 1.4288,1.03808 0.09925,-0.12636 1.23555,-0.96351 1.66665,-0.80288 0.92296,0.83103 -0.62427,1.74145 -0.82908,1.3295 -0.1153,0.11191 1.18175,1.31247 0.12335,-0.10297 1.40888,-0.68557 1.79716,-0.43882 0.73,1.00477 -0.97269,1.57359 -1.08739,1.12808 -0.13604,0.08549 0.88305,1.52948 0.14206,-0.07507 1.52063,-0.37766 1.84912,-0.05558 0.50516,1.13458 -1.27861,1.33698 -1.29817,0.87734 -0.15084,0.05534 0.54576,1.67966 0.15456,-0.04389 1.56592,-0.05326 1.82027,0.33009 0.25822,1.21482 -1.52864,1.04192 -1.45221,0.58827 -0.15905,0.02276 z"
         inkscape:connector-curvature="0" />
      <circle
         id="path130"
         style="fill:#ffd42a;stroke:#000000;stroke-width:0.26458332"
         cx="0"
         cy="0"
         r="2.6458333" />
    </g>
  </g>
</svg>
